<mxfile host="app.diagrams.net" modified="2023-03-25T13:58:37.017Z" agent="Mozilla/5.0 (Windows NT 10.0; Win64; x64) AppleWebKit/537.36 (KHTML, like Gecko) Chrome/111.0.0.0 Safari/537.36" etag="oVdGZ9oU0ozgLWdYjZB4" version="21.1.1" type="device">
  <diagram id="_OyL1b3BrPxCxe9C-KzJ" name="Total">
    <mxGraphModel dx="794" dy="740" grid="1" gridSize="10" guides="1" tooltips="1" connect="1" arrows="1" fold="1" page="1" pageScale="1" pageWidth="827" pageHeight="1169" math="0" shadow="0">
      <root>
        <mxCell id="0" />
        <mxCell id="1" parent="0" />
        <mxCell id="8tUfPZc901MP2YqABSOE-1" style="edgeStyle=orthogonalEdgeStyle;rounded=0;orthogonalLoop=1;jettySize=auto;html=1;exitX=0.5;exitY=1;exitDx=0;exitDy=0;entryX=0.5;entryY=0;entryDx=0;entryDy=0;" edge="1" parent="1" source="8tUfPZc901MP2YqABSOE-2" target="8tUfPZc901MP2YqABSOE-4">
          <mxGeometry relative="1" as="geometry" />
        </mxCell>
        <mxCell id="8tUfPZc901MP2YqABSOE-2" value="Start" style="rounded=1;whiteSpace=wrap;html=1;arcSize=50;" vertex="1" parent="1">
          <mxGeometry x="160" y="60" width="120" height="30" as="geometry" />
        </mxCell>
        <mxCell id="8tUfPZc901MP2YqABSOE-3" style="edgeStyle=orthogonalEdgeStyle;rounded=0;orthogonalLoop=1;jettySize=auto;html=1;exitX=0.5;exitY=1;exitDx=0;exitDy=0;entryX=0.5;entryY=0;entryDx=0;entryDy=0;" edge="1" parent="1" source="8tUfPZc901MP2YqABSOE-4" target="8tUfPZc901MP2YqABSOE-7">
          <mxGeometry relative="1" as="geometry" />
        </mxCell>
        <mxCell id="8tUfPZc901MP2YqABSOE-4" value="array[] = {....}&lt;br&gt;max = 3&lt;br&gt;element = 1&lt;br&gt;i = 0&lt;br&gt;count = 0" style="rounded=0;whiteSpace=wrap;html=1;" vertex="1" parent="1">
          <mxGeometry x="160" y="110" width="120" height="80" as="geometry" />
        </mxCell>
        <mxCell id="8tUfPZc901MP2YqABSOE-6" value="No" style="edgeStyle=orthogonalEdgeStyle;rounded=0;orthogonalLoop=1;jettySize=auto;html=1;exitX=1;exitY=0.5;exitDx=0;exitDy=0;" edge="1" parent="1" source="8tUfPZc901MP2YqABSOE-7">
          <mxGeometry x="-0.92" y="10" relative="1" as="geometry">
            <mxPoint x="400" y="245" as="targetPoint" />
            <Array as="points">
              <mxPoint x="390" y="245" />
              <mxPoint x="390" y="245" />
            </Array>
            <mxPoint as="offset" />
          </mxGeometry>
        </mxCell>
        <mxCell id="8tUfPZc901MP2YqABSOE-7" value="i &amp;lt; array.Lenght" style="rhombus;whiteSpace=wrap;html=1;" vertex="1" parent="1">
          <mxGeometry x="130" y="220" width="180" height="50" as="geometry" />
        </mxCell>
        <mxCell id="8tUfPZc901MP2YqABSOE-8" value="Yes" style="edgeStyle=orthogonalEdgeStyle;rounded=0;orthogonalLoop=1;jettySize=auto;html=1;exitX=0.5;exitY=1;exitDx=0;exitDy=0;entryX=0.5;entryY=0;entryDx=0;entryDy=0;" edge="1" parent="1" source="8tUfPZc901MP2YqABSOE-10" target="8tUfPZc901MP2YqABSOE-12">
          <mxGeometry x="0.3333" y="20" relative="1" as="geometry">
            <mxPoint as="offset" />
          </mxGeometry>
        </mxCell>
        <mxCell id="8tUfPZc901MP2YqABSOE-9" value="No" style="edgeStyle=orthogonalEdgeStyle;rounded=0;orthogonalLoop=1;jettySize=auto;html=1;exitX=1;exitY=0.5;exitDx=0;exitDy=0;entryX=1;entryY=0.5;entryDx=0;entryDy=0;" edge="1" parent="1" source="8tUfPZc901MP2YqABSOE-10" target="8tUfPZc901MP2YqABSOE-14">
          <mxGeometry x="-0.8519" y="10" relative="1" as="geometry">
            <mxPoint as="offset" />
          </mxGeometry>
        </mxCell>
        <mxCell id="8tUfPZc901MP2YqABSOE-10" value="array[i].Lenght &amp;lt;= max" style="rhombus;whiteSpace=wrap;html=1;" vertex="1" parent="1">
          <mxGeometry x="130" y="340" width="180" height="50" as="geometry" />
        </mxCell>
        <mxCell id="8tUfPZc901MP2YqABSOE-11" style="edgeStyle=orthogonalEdgeStyle;rounded=0;orthogonalLoop=1;jettySize=auto;html=1;exitX=0.5;exitY=1;exitDx=0;exitDy=0;entryX=0.5;entryY=0;entryDx=0;entryDy=0;" edge="1" parent="1" source="8tUfPZc901MP2YqABSOE-12" target="8tUfPZc901MP2YqABSOE-14">
          <mxGeometry relative="1" as="geometry" />
        </mxCell>
        <mxCell id="8tUfPZc901MP2YqABSOE-21" style="edgeStyle=orthogonalEdgeStyle;rounded=0;orthogonalLoop=1;jettySize=auto;html=1;exitX=0;exitY=0.5;exitDx=0;exitDy=0;entryX=0;entryY=0.5;entryDx=0;entryDy=0;" edge="1" parent="1" source="8tUfPZc901MP2YqABSOE-12" target="8tUfPZc901MP2YqABSOE-7">
          <mxGeometry relative="1" as="geometry">
            <Array as="points">
              <mxPoint x="100" y="425" />
              <mxPoint x="100" y="245" />
            </Array>
          </mxGeometry>
        </mxCell>
        <mxCell id="8tUfPZc901MP2YqABSOE-12" value="count ++" style="rounded=0;whiteSpace=wrap;html=1;" vertex="1" parent="1">
          <mxGeometry x="160" y="410" width="120" height="30" as="geometry" />
        </mxCell>
        <mxCell id="8tUfPZc901MP2YqABSOE-23" style="edgeStyle=orthogonalEdgeStyle;rounded=0;orthogonalLoop=1;jettySize=auto;html=1;exitX=0;exitY=0.5;exitDx=0;exitDy=0;" edge="1" parent="1" source="8tUfPZc901MP2YqABSOE-14">
          <mxGeometry relative="1" as="geometry">
            <mxPoint x="100" y="420" as="targetPoint" />
          </mxGeometry>
        </mxCell>
        <mxCell id="8tUfPZc901MP2YqABSOE-14" value="i++" style="rounded=0;whiteSpace=wrap;html=1;" vertex="1" parent="1">
          <mxGeometry x="160" y="460" width="120" height="35" as="geometry" />
        </mxCell>
        <mxCell id="8tUfPZc901MP2YqABSOE-24" value="k &amp;lt; array.Lenght" style="rhombus;whiteSpace=wrap;html=1;" vertex="1" parent="1">
          <mxGeometry x="390" y="340" width="180" height="50" as="geometry" />
        </mxCell>
        <mxCell id="8tUfPZc901MP2YqABSOE-47" style="edgeStyle=orthogonalEdgeStyle;rounded=0;orthogonalLoop=1;jettySize=auto;html=1;exitX=1;exitY=0.5;exitDx=0;exitDy=0;entryX=1;entryY=0.5;entryDx=0;entryDy=0;" edge="1" parent="1" source="8tUfPZc901MP2YqABSOE-25" target="8tUfPZc901MP2YqABSOE-43">
          <mxGeometry relative="1" as="geometry" />
        </mxCell>
        <mxCell id="8tUfPZc901MP2YqABSOE-48" value="No" style="edgeLabel;html=1;align=center;verticalAlign=middle;resizable=0;points=[];" vertex="1" connectable="0" parent="8tUfPZc901MP2YqABSOE-47">
          <mxGeometry x="0.0182" y="-1" relative="1" as="geometry">
            <mxPoint x="-9" y="-88" as="offset" />
          </mxGeometry>
        </mxCell>
        <mxCell id="8tUfPZc901MP2YqABSOE-25" value="array[k].Lenght &amp;lt;= max" style="rhombus;whiteSpace=wrap;html=1;" vertex="1" parent="1">
          <mxGeometry x="390" y="410" width="180" height="50" as="geometry" />
        </mxCell>
        <mxCell id="8tUfPZc901MP2YqABSOE-28" style="edgeStyle=orthogonalEdgeStyle;rounded=0;orthogonalLoop=1;jettySize=auto;html=1;exitX=0.5;exitY=1;exitDx=0;exitDy=0;entryX=0.5;entryY=0;entryDx=0;entryDy=0;" edge="1" parent="1" source="8tUfPZc901MP2YqABSOE-26" target="8tUfPZc901MP2YqABSOE-10">
          <mxGeometry relative="1" as="geometry" />
        </mxCell>
        <mxCell id="8tUfPZc901MP2YqABSOE-26" value="element ++" style="rounded=0;whiteSpace=wrap;html=1;" vertex="1" parent="1">
          <mxGeometry x="160" y="290" width="120" height="30" as="geometry" />
        </mxCell>
        <mxCell id="8tUfPZc901MP2YqABSOE-31" style="edgeStyle=orthogonalEdgeStyle;rounded=0;orthogonalLoop=1;jettySize=auto;html=1;exitX=0.5;exitY=1;exitDx=0;exitDy=0;entryX=0.5;entryY=0;entryDx=0;entryDy=0;" edge="1" parent="1" source="8tUfPZc901MP2YqABSOE-29" target="8tUfPZc901MP2YqABSOE-30">
          <mxGeometry relative="1" as="geometry" />
        </mxCell>
        <mxCell id="8tUfPZc901MP2YqABSOE-29" value="newArray[newArray.Lenght]" style="rounded=0;whiteSpace=wrap;html=1;" vertex="1" parent="1">
          <mxGeometry x="400" y="230" width="160" height="30" as="geometry" />
        </mxCell>
        <mxCell id="8tUfPZc901MP2YqABSOE-32" style="edgeStyle=orthogonalEdgeStyle;rounded=0;orthogonalLoop=1;jettySize=auto;html=1;exitX=0.5;exitY=1;exitDx=0;exitDy=0;entryX=0.5;entryY=0;entryDx=0;entryDy=0;" edge="1" parent="1" source="8tUfPZc901MP2YqABSOE-30" target="8tUfPZc901MP2YqABSOE-24">
          <mxGeometry relative="1" as="geometry" />
        </mxCell>
        <mxCell id="8tUfPZc901MP2YqABSOE-30" value="j = 0&lt;br&gt;k = 0" style="rounded=0;whiteSpace=wrap;html=1;" vertex="1" parent="1">
          <mxGeometry x="420" y="280" width="120" height="35" as="geometry" />
        </mxCell>
        <mxCell id="8tUfPZc901MP2YqABSOE-36" value="Yes" style="edgeStyle=orthogonalEdgeStyle;rounded=0;orthogonalLoop=1;jettySize=auto;html=1;exitX=0.5;exitY=1;exitDx=0;exitDy=0;" edge="1" parent="1" source="8tUfPZc901MP2YqABSOE-7">
          <mxGeometry x="0.3333" y="20" relative="1" as="geometry">
            <mxPoint x="420" y="100" as="sourcePoint" />
            <mxPoint x="220" y="290" as="targetPoint" />
            <mxPoint as="offset" />
          </mxGeometry>
        </mxCell>
        <mxCell id="8tUfPZc901MP2YqABSOE-38" value="Yes" style="edgeStyle=orthogonalEdgeStyle;rounded=0;orthogonalLoop=1;jettySize=auto;html=1;exitX=0.5;exitY=1;exitDx=0;exitDy=0;" edge="1" parent="1" source="8tUfPZc901MP2YqABSOE-24">
          <mxGeometry x="0.3333" y="20" relative="1" as="geometry">
            <mxPoint x="500" y="110" as="sourcePoint" />
            <mxPoint x="480" y="410" as="targetPoint" />
            <mxPoint as="offset" />
          </mxGeometry>
        </mxCell>
        <mxCell id="8tUfPZc901MP2YqABSOE-44" style="edgeStyle=orthogonalEdgeStyle;rounded=0;orthogonalLoop=1;jettySize=auto;html=1;exitX=0.5;exitY=1;exitDx=0;exitDy=0;entryX=0.5;entryY=0;entryDx=0;entryDy=0;" edge="1" parent="1" source="8tUfPZc901MP2YqABSOE-39" target="8tUfPZc901MP2YqABSOE-43">
          <mxGeometry relative="1" as="geometry" />
        </mxCell>
        <mxCell id="8tUfPZc901MP2YqABSOE-45" style="edgeStyle=orthogonalEdgeStyle;rounded=0;orthogonalLoop=1;jettySize=auto;html=1;exitX=0;exitY=0.5;exitDx=0;exitDy=0;entryX=0;entryY=0.5;entryDx=0;entryDy=0;" edge="1" parent="1" source="8tUfPZc901MP2YqABSOE-39" target="8tUfPZc901MP2YqABSOE-24">
          <mxGeometry relative="1" as="geometry">
            <Array as="points">
              <mxPoint x="360" y="498" />
              <mxPoint x="360" y="365" />
            </Array>
          </mxGeometry>
        </mxCell>
        <mxCell id="8tUfPZc901MP2YqABSOE-39" value="j++" style="rounded=0;whiteSpace=wrap;html=1;" vertex="1" parent="1">
          <mxGeometry x="420" y="480" width="120" height="35" as="geometry" />
        </mxCell>
        <mxCell id="8tUfPZc901MP2YqABSOE-42" value="Yes" style="edgeStyle=orthogonalEdgeStyle;rounded=0;orthogonalLoop=1;jettySize=auto;html=1;exitX=0.5;exitY=1;exitDx=0;exitDy=0;" edge="1" parent="1" source="8tUfPZc901MP2YqABSOE-25">
          <mxGeometry x="0.3333" y="20" relative="1" as="geometry">
            <mxPoint x="510" y="80" as="sourcePoint" />
            <mxPoint x="480" y="480" as="targetPoint" />
            <mxPoint as="offset" />
          </mxGeometry>
        </mxCell>
        <mxCell id="8tUfPZc901MP2YqABSOE-46" style="edgeStyle=orthogonalEdgeStyle;rounded=0;orthogonalLoop=1;jettySize=auto;html=1;exitX=0;exitY=0.5;exitDx=0;exitDy=0;" edge="1" parent="1" source="8tUfPZc901MP2YqABSOE-43">
          <mxGeometry relative="1" as="geometry">
            <mxPoint x="360" y="490" as="targetPoint" />
          </mxGeometry>
        </mxCell>
        <mxCell id="8tUfPZc901MP2YqABSOE-43" value="k++" style="rounded=0;whiteSpace=wrap;html=1;" vertex="1" parent="1">
          <mxGeometry x="420" y="540" width="120" height="35" as="geometry" />
        </mxCell>
        <mxCell id="8tUfPZc901MP2YqABSOE-54" style="edgeStyle=orthogonalEdgeStyle;rounded=0;orthogonalLoop=1;jettySize=auto;html=1;exitX=0.5;exitY=1;exitDx=0;exitDy=0;" edge="1" parent="1" source="8tUfPZc901MP2YqABSOE-49" target="8tUfPZc901MP2YqABSOE-53">
          <mxGeometry relative="1" as="geometry" />
        </mxCell>
        <mxCell id="8tUfPZc901MP2YqABSOE-49" value="newArray" style="rounded=0;whiteSpace=wrap;html=1;" vertex="1" parent="1">
          <mxGeometry x="620" y="350" width="130" height="30" as="geometry" />
        </mxCell>
        <mxCell id="8tUfPZc901MP2YqABSOE-52" value="No" style="edgeStyle=orthogonalEdgeStyle;rounded=0;orthogonalLoop=1;jettySize=auto;html=1;exitX=1;exitY=0.5;exitDx=0;exitDy=0;entryX=0;entryY=0.5;entryDx=0;entryDy=0;" edge="1" parent="1" source="8tUfPZc901MP2YqABSOE-24" target="8tUfPZc901MP2YqABSOE-49">
          <mxGeometry x="-0.6" y="15" relative="1" as="geometry">
            <mxPoint x="620" y="290" as="sourcePoint" />
            <mxPoint x="710" y="290" as="targetPoint" />
            <Array as="points">
              <mxPoint x="600" y="365" />
              <mxPoint x="600" y="365" />
            </Array>
            <mxPoint as="offset" />
          </mxGeometry>
        </mxCell>
        <mxCell id="8tUfPZc901MP2YqABSOE-53" value="End" style="rounded=1;whiteSpace=wrap;html=1;arcSize=50;" vertex="1" parent="1">
          <mxGeometry x="625" y="410" width="120" height="30" as="geometry" />
        </mxCell>
      </root>
    </mxGraphModel>
  </diagram>
</mxfile>
